{"scene":0,"asset":{"generator":"ImageToStl.com","version":"2.0"},"scenes":[{"name":"Scene","nodes":[0]}],"nodes":[{"name":"Node0","children":[1]},{"name":"Node1","mesh":0}],"materials":[{"name":"x1","pbrMetallicRoughness":{"baseColorFactor":[0.85,0.85,0.85,1.0],"metallicFactor":0.05,"roughnessFactor":0.5},"doubleSided":true}],"meshes":[{"name":"Mesh0","primitives":[{"indices":2,"material":0,"attributes":{"POSITION":0,"NORMAL":1}}]}],"accessors":[{"bufferView":0,"componentType":5126,"count":27882,"type":"VEC3","min":[0.00010430813,0.00010307758,0.0019099098],"max":[110.00011,45.000103,86.00191]},{"bufferView":1,"componentType":5126,"count":27882,"type":"VEC3"},{"bufferView":2,"componentType":5123,"count":31194,"type":"SCALAR"}],"bufferViews":[{"target":34962,"buffer":0,"byteLength":334584,"byteOffset":0},{"target":34962,"buffer":0,"byteLength":334584,"byteOffset":334584},{"target":34963,"buffer":0,"byteLength":62388,"byteOffset":669168}],"buffers":[{"byteLength":731556,"uri":"data:application/octet-stream;base64,"}]}